# xmcd CD database file
#
# Track frame offsets:
#	150
#	21300
#	36380
#	55030
#	89575
#	105860
#	125605
#	143455
#	161090
#	175350
#	190195
#	207975
#
# Disc length: 3113 seconds
#
# Revision: 0
# Processed by: cddbd v1.4PL0 Copyright (c) Steve Scherf et al.
# Submitted via: CDex 1.50Beta7
#
DISCID=a30c270c
DTITLE=Irmandade Do Blues - Veneno
DYEAR=1996
DGENRE=Blues
TTITLE0=Give It Up
TTITLE1=Highway 49
TTITLE2=Loose Your Mind Away
TTITLE3=Mean Old World
TTITLE4=Boom Boom
TTITLE5=Jailhouse Rock
TTITLE6=I Gotta Woman
TTITLE7=Johnny B. Goode
TTITLE8=Veneno
TTITLE9=Big Bill's Blues
TTITLE10=Hallucinated
TTITLE11=Crossroads
EXTD=YEAR: 1996
EXTT0=
EXTT1=
EXTT2=
EXTT3=
EXTT4=
EXTT5=
EXTT6=
EXTT7=
EXTT8=
EXTT9=
EXTT10=
EXTT11=
PLAYORDER=
